PathFileType	4	(X/Y/Z)	C:/Users/opensim2020/Desktop/walking_exp_matlab/subject03_walking08_straight_04.trc																																																																																																																																																							
DataRate	CameraRate	NumFrames	NumMarkers	Units	OrigDataRate	OrigDataStartFrame	OrigNumFrames																																																																																																																																																			
100	100	7	51	mm	100	3541	303																																																																																																																																																			
Frame#	Time	LFHD			RFHD			LBHD			RBHD			C7			T10			CLAV			STRN			RBAK			LSHO			LUPA			LELB			LFRM			LWRA			LWRB			LFIN			RSHO			RUPA			RELB			RFRM			RWRA			RWRB			RFIN			LASI			RASI			LPSI			RPSI			LTHI			LKNE			LTIB			LANK			LHEE			LTOE			RTHI			RKNE			RTIB			RANK			RHEE			RTOE			*39			*40			*41			*42			*43			*44			*45			*46			*47			*48			*49			*50		
		X1	Y1	Z1	X2	Y2	Z2	X3	Y3	Z3	X4	Y4	Z4	X5	Y5	Z5	X6	Y6	Z6	X7	Y7	Z7	X8	Y8	Z8	X9	Y9	Z9	X10	Y10	Z10	X11	Y11	Z11	X12	Y12	Z12	X13	Y13	Z13	X14	Y14	Z14	X15	Y15	Z15	X16	Y16	Z16	X17	Y17	Z17	X18	Y18	Z18	X19	Y19	Z19	X20	Y20	Z20	X21	Y21	Z21	X22	Y22	Z22	X23	Y23	Z23	X24	Y24	Z24	X25	Y25	Z25	X26	Y26	Z26	X27	Y27	Z27	X28	Y28	Z28	X29	Y29	Z29	X30	Y30	Z30	X31	Y31	Z31	X32	Y32	Z32	X33	Y33	Z33	X34	Y34	Z34	X35	Y35	Z35	X36	Y36	Z36	X37	Y37	Z37	X38	Y38	Z38	X39	Y39	Z39	X40	Y40	Z40	X41	Y41	Z41	X42	Y42	Z42	X43	Y43	Z43	X44	Y44	Z44	X45	Y45	Z45	X46	Y46	Z46	X47	Y47	Z47	X48	Y48	Z48	X49	Y49	Z49	X50	Y50	Z50	X51	Y51	Z51
																																																																																																																																																										
190	1.89	169.76575	1601.96924	-1505.25549	158.67212	1611.84497	-1373.08582	43.07112	1554.28528	-1508.0542	36.63614	1564.0686	-1377.53979	7.43633	1404.35193	-1453.80029	-32.7595	1090.94934	-1448.30981	126.37194	1323.34412	-1441.55334	166.06871	1158.22083	-1448.44263	-59.52305	1228.08752	-1366.63123	99.14656	1363.58032	-1599.13574	125.65627	1175.79163	-1677.93201	163.8857	1060.22144	-1693.68188	238.95889	955.92902	-1683.77869	304.59402	861.8009	-1642.41553	286.88971	852.94281	-1694.46399	340.86362	791.31677	-1678.86121	64.44966	1345	-1286.19653	45.46457	1120.23779	-1221.78967	54.40061	1007.52277	-1210.24976	64.33643	870.81519	-1210.39746	96.57986	775.65527	-1243.36389	57.69093	770.38513	-1205.53406	80.39526	699.8186	-1213.55286	125.7816	928.67603	-1572.09644	136.47699	922.41675	-1332.35645	-33.36658	952.81494	-1510.87805	-25.23317	950.11847	-1362.65588	30.17634	633.02014	-1598.13342	-0.93412	457.42261	-1557.35132	-97.94672	283.91422	-1551.98694	-169.19739	85.28646	-1504.71301	-216.50388	58.60394	-1467.26318	-24.12936	33.8408	-1476.83105	140.29939	629.02399	-1287.94324	220.12735	469.32285	-1330.47998	242.2529	285.7966	-1330.13513	308.36929	78.6039	-1375.62451	284.64838	38.97208	-1435.35327	454.0864	78.66299	-1377.40332	NaN	NaN	NaN	NaN	NaN	NaN	NaN	NaN	NaN	NaN	NaN	NaN	NaN	NaN	NaN	NaN	NaN	NaN	NaN	NaN	NaN	NaN	NaN	NaN	NaN	NaN	NaN	NaN	NaN	NaN	NaN	NaN	NaN	NaN	NaN	NaN
191	1.9	178.36798	1601.41028	-1505.03162	167.35287	1611.30334	-1372.89453	51.5002	1553.73669	-1507.72205	45.31619	1563.56873	-1377.0863	15.93237	1403.76672	-1452.97253	-24.00615	1090.32166	-1447.33899	134.78922	1322.67737	-1441.1084	174.75037	1157.73328	-1448.37756	-50.48957	1227.59692	-1365.49365	107.01638	1363.09265	-1598.82568	132.44618	1174.88928	-1677.18323	169.93448	1059.10095	-1692.83716	244.82191	954.52765	-1683.05286	310.29935	860.49414	-1641.82471	292.41815	851.53357	-1693.77795	346.17032	789.73132	-1678.17773	73.80051	1344.48682	-1285.62341	54.55165	1119.71277	-1221.41577	62.78975	1006.97626	-1210.146	72.26865	870.14459	-1210.40857	104.15791	774.94867	-1243.5697	64.89766	769.77753	-1205.49976	87.46746	699.15558	-1214.03979	134.0414	928.12628	-1571.98621	145.90787	921.77179	-1332.31421	-24.80319	952.35736	-1509.93982	-15.995	949.69562	-1361.78235	36.90272	632.8866	-1598.21558	4.66467	457.28473	-1557.7323	-94.59803	284.86823	-1552.21729	-168.46204	87.20968	-1504.7583	-215.99232	61.15606	-1467.43237	-24.03437	33.78344	-1476.88306	148.99042	628.30133	-1288.25464	227.79561	468.15115	-1331.10876	249.70682	284.73038	-1330.88	315.62042	77.36749	-1376.89282	291.74768	37.88884	-1436.4082	461.26422	77.13437	-1378.47144	NaN	NaN	NaN	NaN	NaN	NaN	NaN	NaN	NaN	NaN	NaN	NaN	NaN	NaN	NaN	NaN	NaN	NaN	NaN	NaN	NaN	NaN	NaN	NaN	NaN	NaN	NaN	NaN	NaN	NaN	NaN	NaN	NaN	NaN	NaN	NaN
192	1.91	186.78928	1600.99463	-1504.82495	176.12373	1610.90845	-1372.64526	60.02133	1553.32202	-1507.19153	54.06094	1563.14075	-1376.55884	24.54617	1403.25696	-1452.12683	-15.02326	1089.78101	-1446.37573	143.58054	1322.31726	-1440.85083	183.60004	1157.34717	-1448.29797	-41.3511	1227.11389	-1364.34485	114.84719	1362.68494	-1598.4646	139.17703	1174.06885	-1676.479	175.8829	1058.0437	-1692.01587	250.33089	953.17303	-1682.38879	315.47104	858.84283	-1641.20349	297.45239	849.93146	-1693.10071	350.99612	787.90594	-1677.55835	83.33134	1344.12671	-1285.08313	63.77061	1119.271	-1220.94604	71.55245	1006.45593	-1209.89294	80.48322	869.61743	-1210.38525	111.41863	774.20465	-1243.88745	72.54613	769.19867	-1205.50757	94.71571	698.33142	-1214.29321	142.56516	927.61804	-1571.79773	155.55385	921.23114	-1332.24915	-16.00741	951.93335	-1509.09985	-6.48507	949.26044	-1360.90649	43.78553	632.77899	-1598.18811	10.41188	457.30322	-1558.13733	-90.95005	285.92007	-1552.44202	-167.30319	88.9791	-1505.40088	-215.22725	63.93658	-1467.65063	-23.91666	33.73714	-1476.96729	157.86856	627.69666	-1288.63025	235.50229	467.02527	-1331.79004	256.59146	283.55411	-1331.54138	321.21436	75.85453	-1377.77417	296.70233	36.46053	-1437.08203	466.79663	74.67127	-1380.09448	NaN	NaN	NaN	NaN	NaN	NaN	NaN	NaN	NaN	NaN	NaN	NaN	NaN	NaN	NaN	NaN	NaN	NaN	NaN	NaN	NaN	NaN	NaN	NaN	NaN	NaN	NaN	NaN	NaN	NaN	NaN	NaN	NaN	NaN	NaN	NaN
193	1.92	195.18323	1600.66455	-1504.66455	184.9341	1610.5658	-1372.38452	68.53808	1553.00415	-1506.71521	62.88257	1562.82642	-1376.06287	33.06087	1402.94678	-1451.23608	-5.84304	1089.25952	-1445.38428	152.43974	1321.9989	-1440.55798	192.6017	1157.10645	-1448.19861	-32.01826	1226.54639	-1363.09143	122.66202	1362.34363	-1598.04016	145.82652	1173.34656	-1675.79126	181.67465	1057.00293	-1691.17773	255.59659	951.75995	-1681.72986	320.53629	857.26495	-1640.75903	302.12643	848.24109	-1692.48669	355.34958	785.91754	-1677.04297	93.00787	1343.7467	-1284.41248	73.22014	1118.88281	-1220.46912	80.59315	1006.02802	-1209.63843	88.93053	869.1676	-1210.29199	119.308	773.52539	-1244.05432	80.84091	768.76563	-1205.74988	102.1931	697.67004	-1214.57336	151.30508	927.17004	-1571.72949	165.3996	920.73047	-1332.177	-6.81341	951.58569	-1508.14246	3.24373	948.98059	-1360.02771	50.95984	632.70361	-1598.18445	16.62868	457.30508	-1558.50916	-87.17791	287.04077	-1552.84814	-166.13828	91.24153	-1505.35291	-214.3681	66.82864	-1467.81165	-23.55212	33.74329	-1477.10767	166.96255	627.18555	-1288.81763	243.38016	466.01163	-1332.37646	262.74826	282.18396	-1332.10168	325.07388	73.84932	-1378.75085	299.42459	35.32407	-1437.45605	470.44177	71.20174	-1381.99475	NaN	NaN	NaN	NaN	NaN	NaN	NaN	NaN	NaN	NaN	NaN	NaN	NaN	NaN	NaN	NaN	NaN	NaN	NaN	NaN	NaN	NaN	NaN	NaN	NaN	NaN	NaN	NaN	NaN	NaN	NaN	NaN	NaN	NaN	NaN	NaN
194	1.93	203.49022	1600.47058	-1504.50818	193.81265	1610.37793	-1372.10437	77.10791	1552.81372	-1506.04932	71.76284	1562.5946	-1375.49329	41.79845	1402.43225	-1450.20386	3.47091	1088.7926	-1444.50525	161.35136	1321.7865	-1440.15894	201.87392	1157.04224	-1448.08862	-22.53521	1225.95862	-1361.77661	130.59183	1362.16418	-1597.60559	152.40175	1172.67175	-1675.07727	187.25275	1055.99402	-1690.37878	260.49918	950.42285	-1681.1864	325.22104	855.48096	-1640.29248	306.41156	846.47894	-1691.91101	359.23987	783.73541	-1676.51831	102.59651	1343.50354	-1283.74817	82.81021	1118.61108	-1219.85901	89.75731	1005.65662	-1209.22375	97.54434	868.73431	-1210.07642	127.38944	773.06818	-1244.16663	88.84776	768.34167	-1205.37158	109.68021	697.19635	-1214.66797	160.74715	926.85931	-1571.26331	175.63867	920.4527	-1332.03784	2.47193	951.41626	-1507.20544	13.21878	948.8291	-1359.1499	58.34529	632.57495	-1598.13635	23.07972	457.17377	-1558.8988	-82.98869	288.18118	-1552.91284	-164.94086	93.703	-1505.84143	-213.37115	70.04597	-1468.11914	-23.39939	33.64273	-1477.16003	176.31104	626.91028	-1288.89832	251.13242	464.98419	-1332.86145	268.23987	280.70108	-1332.75391	327.57983	71.77653	-1379.8446	300.55008	33.76252	-1438.59692	472.63611	65.98058	-1384.19055	115.83592	1662.44373	-1462.90649	NaN	NaN	NaN	NaN	NaN	NaN	NaN	NaN	NaN	NaN	NaN	NaN	NaN	NaN	NaN	NaN	NaN	NaN	NaN	NaN	NaN	NaN	NaN	NaN	NaN	NaN	NaN	NaN	NaN	NaN	NaN	NaN	NaN
195	1.94	211.923	1600.4425	-1504.2926	202.67345	1610.35425	-1371.76367	85.62404	1552.6853	-1505.44983	80.65321	1562.56226	-1374.84485	50.37918	1402.35901	-1449.2019	12.98261	1088.60388	-1443.58862	170.43785	1321.76904	-1439.76587	211.28528	1157.17834	-1447.97754	-12.91098	1225.45654	-1360.46509	138.54054	1362.02051	-1597.11218	158.91245	1172.04065	-1674.39441	192.71539	1055.00806	-1689.56909	265.38632	948.88342	-1680.62439	329.67661	853.58752	-1639.95764	310.40457	844.64374	-1691.42493	362.78473	781.38977	-1676.16016	112.45368	1343.24548	-1282.96741	92.56937	1118.31604	-1219.23547	99.23749	1005.39587	-1208.75806	106.43379	868.38647	-1209.8728	135.5739	772.59167	-1244.24487	97.31421	768.0083	-1205.1781	117.92033	696.74408	-1214.81445	169.99138	926.39874	-1571.26917	185.88643	920.33539	-1331.94214	11.98754	951.21759	-1506.25146	23.36954	948.95721	-1358.23193	66.05793	632.39417	-1598.04968	29.93278	457.05649	-1559.18896	-78.7483	289.41522	-1553.30591	-164.11743	96.50615	-1506.02625	-212.28302	73.45688	-1468.62866	-23.33885	33.45569	-1477.1095	185.7515	627.07227	-1288.84729	258.41553	464.1398	-1333.19397	273.19571	279.52829	-1333.81116	330.15158	70.70639	-1381.03308	301.69464	34.39506	-1440.10803	475.05548	58.01874	-1385.78442	NaN	NaN	NaN	NaN	NaN	NaN	NaN	NaN	NaN	NaN	NaN	NaN	NaN	NaN	NaN	NaN	NaN	NaN	NaN	NaN	NaN	NaN	NaN	NaN	NaN	NaN	NaN	NaN	NaN	NaN	NaN	NaN	NaN	NaN	NaN	NaN
196	1.95	220.66766	1600.75537	-1503.90002	211.65179	1610.74133	-1371.43945	94.24395	1552.82275	-1504.7179	89.69083	1562.7168	-1374.08789	59.07412	1402.4187	-1448.04675	22.97757	1088.21667	-1442.44604	179.4644	1322.10754	-1439.33972	220.78337	1157.76013	-1447.79602	-3.33542	1225.24023	-1359.29431	146.52422	1362.13135	-1596.6333	165.35835	1171.50635	-1673.62463	198.03709	1054.09949	-1688.76794	269.86105	947.38116	-1680.1676	333.90714	851.71655	-1639.8125	313.83011	842.53937	-1690.86536	365.78986	778.90137	-1675.87415	122.3577	1343.24951	-1282.13245	102.52168	1118.16602	-1218.63367	108.82018	1005.17639	-1208.24561	115.50309	868.12421	-1209.53979	144.1433	772.29858	-1244.12341	106.05216	767.80237	-1204.92688	126.16571	696.4491	-1214.80994	179.51851	925.97986	-1571.48242	196.17397	920.52643	-1331.92749	21.59343	951.1225	-1505.48999	33.94465	949.30359	-1357.14429	74.18378	632.14063	-1597.84192	37.20594	456.95892	-1559.37219	-73.80083	290.84842	-1553.39954	-162.24608	99.24908	-1506.65149	-210.93835	77.31948	-1469.20703	-23.04408	33.39282	-1477.13794	195.05743	628.26392	-1288.77197	264.94791	464.05447	-1333.53369	278.11044	279.48987	-1334.35852	333.55362	70.49902	-1380.56738	303.19876	35.73707	-1439.64551	477.94495	51.72279	-1387.12451	NaN	NaN	NaN	NaN	NaN	NaN	NaN	NaN	NaN	NaN	NaN	NaN	NaN	NaN	NaN	NaN	NaN	NaN	NaN	NaN	NaN	NaN	NaN	NaN	NaN	NaN	NaN	NaN	NaN	NaN	NaN	NaN	NaN	NaN	NaN	NaN
